<?xml version="1.0" encoding="UTF-8" standalone="no"?>
<svg
   xmlns:dc="http://purl.org/dc/elements/1.1/"
   xmlns:cc="http://creativecommons.org/ns#"
   xmlns:rdf="http://www.w3.org/1999/02/22-rdf-syntax-ns#"
   xmlns:svg="http://www.w3.org/2000/svg"
   xmlns="http://www.w3.org/2000/svg"
   xmlns:sodipodi="http://sodipodi.sourceforge.net/DTD/sodipodi-0.dtd"
   xmlns:inkscape="http://www.inkscape.org/namespaces/inkscape"
   width="209.85547pt"
   height="194.78227pt"
   viewBox="0 0 209.85547 194.78227"
   version="1.1"
   id="svg2"
   inkscape:version="0.92.3 (2405546, 2018-03-11)"
   sodipodi:docname="logo.svg"
   inkscape:export-filename="/home/stuart/Dropbox/Company Files/Logo/ap-logo-web-dev.png"
   inkscape:export-xdpi="299.60001"
   inkscape:export-ydpi="299.60001">
  <metadata
     id="metadata103">
    <rdf:RDF>
      <cc:Work
         rdf:about="">
        <dc:format>image/svg+xml</dc:format>
        <dc:type
           rdf:resource="http://purl.org/dc/dcmitype/StillImage" />
        <dc:title />
      </cc:Work>
    </rdf:RDF>
  </metadata>
  <defs
     id="defs101" />
  <sodipodi:namedview
     pagecolor="#ffffff"
     bordercolor="#666666"
     borderopacity="1"
     objecttolerance="10"
     gridtolerance="10"
     guidetolerance="10"
     inkscape:pageopacity="0"
     inkscape:pageshadow="2"
     inkscape:window-width="1600"
     inkscape:window-height="845"
     id="namedview99"
     showgrid="false"
     inkscape:zoom="0.3171638"
     inkscape:cx="214.29088"
     inkscape:cy="59.017696"
     inkscape:window-x="0"
     inkscape:window-y="27"
     inkscape:window-maximized="1"
     inkscape:current-layer="svg2" />
  <g
     id="surface296"
     transform="translate(-360.42969,-165.72137)">
    <path
       style="fill:#f57f11;fill-opacity:1;fill-rule:nonzero;stroke:none"
       d="m 453.13281,242.89062 c 0,-1.44921 -1.07422,-3.13281 -2.38672,-3.74218 l -25.75,-11.9375 c -1.3164,-0.60938 -2.39062,0.0742 -2.39062,1.52343 v 30.53907 c 0,1.44922 1.05469,3.17187 2.34375,3.83203 l 25.83594,13.15234 c 1.28906,0.65625 2.34765,0.0117 2.34765,-1.4375 z m 0,0"
       id="path5"
       inkscape:connector-curvature="0" />
    <path
       style="fill:#f57f11;fill-opacity:1;fill-rule:nonzero;stroke:none"
       d="m 424.92969,269.08594 c -1.28125,-0.67969 -2.32422,-0.0508 -2.32422,1.39843 v 27.36719 c 0,1.44922 1.02734,3.22656 2.28515,3.94531 l 25.95704,14.86329 c 1.2539,0.71875 2.28515,0.125 2.28515,-1.32032 v -28.59375 c 0,-1.44922 -1.04297,-3.1914 -2.32422,-3.875 z m 0,0"
       id="path7"
       inkscape:connector-curvature="0" />
    <path
       style="fill:#f57f11;fill-opacity:1;fill-rule:nonzero;stroke:none"
       d="m 424.87109,308.30859 c -1.24609,-0.73437 -2.26562,-0.15234 -2.26562,1.30078 v 28.48829 c 0,1.44921 1,3.26562 2.23047,4.03515 l 26.0625,16.34766 c 1.23047,0.77344 2.23437,0.21484 2.23437,-1.23438 v -29.69922 c 0,-1.44921 -1.02344,-3.23828 -2.27344,-3.96875 z m 0,0"
       id="path9"
       inkscape:connector-curvature="0" />
    <path
       style="fill:#f57f11;fill-opacity:1;fill-rule:nonzero;stroke:none"
       d="m 416.77344,334.10156 c 0,1.44922 -0.9961,1.99219 -2.21485,1.20703 l -21.66015,-13.96875 c -1.21875,-0.78906 -2.21485,-2.61718 -2.21485,-4.0664 v -26.39453 c 0,-1.45313 1.02344,-2.03907 2.26953,-1.30469 l 21.55079,12.66797 c 1.24609,0.73437 2.26953,2.51953 2.26953,3.97265 z m 0,0"
       id="path11"
       inkscape:connector-curvature="0" />
    <path
       style="fill:#f57f11;fill-opacity:1;fill-rule:nonzero;stroke:none"
       d="m 414.44922,263.87109 c 1.28125,0.6836 2.32422,2.42578 2.32422,3.875 v 26.48438 c 0,1.44922 -1.02344,2.03125 -2.26953,1.29687 l -21.55079,-12.66406 c -1.24609,-0.73437 -2.26953,-2.52344 -2.26953,-3.96875 v -25.07422 c 0,-1.44922 1.04297,-2.07812 2.32422,-1.39453 z m 0,0"
       id="path13"
       inkscape:connector-curvature="0" />
    <path
       style="fill:#f57f11;fill-opacity:1;fill-rule:nonzero;stroke:none"
       d="m 414.39062,222.37109 c 1.3086,0.61719 2.38282,2.3125 2.38282,3.76172 v 29.63281 c 0,1.44922 -1.04688,2.08204 -2.32813,1.40625 l -21.42969,-11.30468 c -1.28515,-0.67188 -2.33203,-2.41407 -2.33203,-3.86328 v -28.21875 c 0,-1.44922 1.07032,-2.12891 2.37891,-1.51172 z m 0,0"
       id="path15"
       inkscape:connector-curvature="0" />
    <path
       style="fill:#f57f11;fill-opacity:1;fill-rule:nonzero;stroke:none"
       d="m 360.42969,226.25391 c 0,1.44921 1.05078,3.18359 2.33593,3.85156 l 20.02735,10.41797 c 1.28515,0.66797 2.33594,0.0312 2.33594,-1.42188 v -28.21875 c 0,-1.45312 -1.07422,-3.14062 -2.38672,-3.75 l -19.92578,-9.29297 c -1.3125,-0.61328 -2.38672,0.0703 -2.38672,1.51953 z m 0,0"
       id="path17"
       inkscape:connector-curvature="0" />
    <path
       style="fill:#f57f11;fill-opacity:1;fill-rule:nonzero;stroke:none"
       d="m 382.80078,247.05078 c 1.28516,0.67969 2.32813,2.41797 2.32813,3.86719 v 24.82422 c 0,1.44922 -1.02344,2.03906 -2.27344,1.30468 l -20.15235,-11.76562 c -1.25,-0.73047 -2.27343,-2.51172 -2.27343,-3.96094 v -23.49609 c 0,-1.44922 1.04687,-2.07813 2.32422,-1.40235 z m 0,0"
       id="path19"
       inkscape:connector-curvature="0" />
    <path
       style="fill:#f57f11;fill-opacity:1;fill-rule:nonzero;stroke:none"
       d="m 382.85156,283.60547 c 1.25391,0.72656 2.27735,2.50781 2.27735,3.95312 v 25.82032 c 0,1.44921 -1.00391,2 -2.22657,1.23437 l -20.24609,-12.72266 c -1.22266,-0.77343 -2.22656,-2.58984 -2.22656,-4.03906 v -24.6289 c 0,-1.44922 1.02343,-2.03907 2.27734,-1.3125 z m 0,0"
       id="path21"
       inkscape:connector-curvature="0" />
    <path
       style="fill:#052647;fill-opacity:1;fill-rule:nonzero;stroke:none"
       d="m 461.30859,241.45703 c -1.375,0.45313 -2.5039,2.01172 -2.5039,3.46094 v 30.52734 c 0,1.44922 1.11718,2.23438 2.48047,1.75 l 31.80078,-11.33203 c 1.36328,-0.48437 2.48047,-2.07031 2.48047,-3.51953 v -29.5625 c 0,-1.44531 -1.125,-2.25781 -2.50391,-1.80859 z m 0,0"
       id="path23"
       inkscape:connector-curvature="0" />
    <path
       style="fill:#fde60c;fill-opacity:1;fill-rule:nonzero;stroke:none"
       d="m 503.71875,227.44531 c -1.37109,0.46485 -2.49219,2.03125 -2.49219,3.48047 v 29.48047 c 0,1.44922 1.11328,2.23437 2.47656,1.74609 l 27.86329,-9.97656 c 1.35937,-0.49219 2.47265,-2.07422 2.47265,-3.52344 v -28.8164 c 0,-1.44922 -1.11719,-2.25782 -2.49219,-1.79297 z m 0,0"
       id="path25"
       inkscape:connector-curvature="0" />
    <path
       style="fill:#052647;fill-opacity:1;fill-rule:nonzero;stroke:none"
       d="m 542.09766,214.61719 c -1.37891,0.46093 -2.50391,2.01953 -2.50391,3.47265 v 28.69922 c 0,1.44922 1.11719,2.23438 2.48047,1.74219 l 25.73437,-9.30078 c 1.36328,-0.49219 2.47657,-2.08203 2.47657,-3.53125 v -27.84375 c 0,-1.44922 -1.125,-2.25781 -2.5,-1.80078 z m 0,0"
       id="path27"
       inkscape:connector-curvature="0" />
    <path
       style="fill:#052647;fill-opacity:1;fill-rule:nonzero;stroke:none"
       d="m 542.18359,254.41797 c -1.36328,0.48828 -2.48437,2.07031 -2.48437,3.51953 v 26.50781 c 0,1.44922 1.10547,2.20313 2.45312,1.67578 l 25.67969,-10.0625 c 1.35156,-0.52734 2.45313,-2.14453 2.45313,-3.59375 v -25.39453 c 0,-1.44531 -1.1211,-2.23437 -2.48047,-1.75 z m 0,0"
       id="path29"
       inkscape:connector-curvature="0" />
    <path
       style="fill:#052647;fill-opacity:1;fill-rule:nonzero;stroke:none"
       d="m 531.56641,258.12891 c 1.35937,-0.48829 2.47265,0.29687 2.47265,1.74609 v 26.72656 c 0,1.44922 -1.09765,3.07422 -2.44531,3.60156 l -27.91797,11.01954 c -1.34766,0.53125 -2.44922,-0.21875 -2.44922,-1.66797 v -27.92188 c 0,-1.44922 1.11328,-3.03515 2.47656,-3.52344 z m 0,0"
       id="path31"
       inkscape:connector-curvature="0" />
    <path
       style="fill:#052647;fill-opacity:1;fill-rule:nonzero;stroke:none"
       d="m 493.08203,271.96094 c 1.36719,-0.48828 2.48438,0.30468 2.48438,1.7539 v 28.14844 c 0,1.44922 -1.10157,3.06641 -2.45313,3.59375 l -31.85547,12.44531 c -1.35156,0.52344 -2.45312,-0.23047 -2.45312,-1.67968 v -29.48047 c 0,-1.44922 1.11718,-3.03125 2.48437,-3.51563 z m 0,0"
       id="path33"
       inkscape:connector-curvature="0" />
    <path
       style="fill:#052647;fill-opacity:1;fill-rule:nonzero;stroke:none"
       d="m 493.11719,311.56641 c 1.35156,-0.52735 2.44922,0.22265 2.44922,1.67187 v 29.55859 c 0,1.44532 -1.08594,3.10547 -2.41407,3.67969 l -31.92968,13.82813 c -1.32813,0.57422 -2.41797,-0.13672 -2.41797,-1.58985 v -30.96875 c 0,-1.44922 1.10156,-3.07031 2.45312,-3.60547 z m 0,0"
       id="path35"
       inkscape:connector-curvature="0" />
    <path
       style="fill:#052647;fill-opacity:1;fill-rule:nonzero;stroke:none"
       d="m 531.59375,296.38281 c 1.34766,-0.53125 2.44531,0.21875 2.44531,1.66406 v 27.92188 c 0,1.45312 -1.08594,3.10937 -2.41015,3.68359 l -27.98438,12.125 c -1.33203,0.57813 -2.41797,-0.14062 -2.41797,-1.58984 v -29.18359 c 0,-1.45313 1.10156,-3.07032 2.44922,-3.60547 z m 0,0"
       id="path37"
       inkscape:connector-curvature="0" />
    <path
       style="fill:#052647;fill-opacity:1;fill-rule:nonzero;stroke:none"
       d="m 542.14844,292.21875 c -1.34375,0.53125 -2.44922,2.14844 -2.44922,3.60156 v 27.6211 c 0,1.44921 1.08984,2.16015 2.41406,1.58203 l 25.75391,-11.21485 c 1.32812,-0.57812 2.41797,-2.23437 2.41797,-3.6875 v -26.35937 c 0,-1.44922 -1.10157,-2.19922 -2.45313,-1.66797 z m 0,0"
       id="path39"
       inkscape:connector-curvature="0" />
    <path
       style="fill:#fde60c;fill-opacity:1;fill-rule:nonzero;stroke:none"
       d="m 535.07031,189.47266 c 1.39453,-0.40625 3.64453,-0.32422 5,0.17578 l 25.26172,9.30468 c 1.35938,0.5 1.34375,1.27344 -0.0352,1.71875 l -25.69531,8.27344 c -1.3789,0.44531 -3.61328,0.37891 -4.96484,-0.14844 l -25.7461,-10.0625 c -1.35156,-0.52734 -1.3164,-1.28906 0.0742,-1.6914 z m 0,0"
       id="path41"
       inkscape:connector-curvature="0" />
    <path
       style="fill:#fde60c;fill-opacity:1;fill-rule:nonzero;stroke:none"
       d="m 499.58594,201.26172 c -1.35157,-0.52344 -3.59766,-0.6211 -4.98438,-0.21485 l -25.74609,7.52344 c -1.39453,0.40625 -1.44531,1.21094 -0.11328,1.78516 l 25.66797,11.08203 c 1.33203,0.57422 3.55078,0.67969 4.92578,0.23437 l 26.32031,-8.5 c 1.37891,-0.44531 1.40234,-1.23828 0.0547,-1.76562 z m 0,0"
       id="path43"
       inkscape:connector-curvature="0" />
    <path
       style="fill:#fde60c;fill-opacity:1;fill-rule:nonzero;stroke:none"
       d="m 459.95703,212.88672 c -1.33594,-0.57422 -3.5625,-0.71485 -4.95312,-0.3125 l -26.33985,7.61328 c -1.38672,0.40625 -1.45703,1.24219 -0.15234,1.86719 l 25.23437,12.01953 c 1.3086,0.625 3.51563,0.78515 4.89453,0.35156 l 27.26563,-8.48047 c 1.38672,-0.42969 1.42969,-1.25 0.0977,-1.82422 z m 0,0"
       id="path45"
       inkscape:connector-curvature="0" />
    <path
       style="fill:#fde60c;fill-opacity:1;fill-rule:nonzero;stroke:none"
       d="m 428.32812,199.34766 c -1.33203,-0.57813 -3.5625,-0.74219 -4.96093,-0.3711 l -25.27344,6.75 c -1.40234,0.375 -1.48047,1.19531 -0.16797,1.82031 l 17.94531,8.58985 c 1.30469,0.625 3.51563,0.80859 4.90625,0.40625 l 25.7461,-7.46485 c 1.38672,-0.40234 1.4414,-1.20312 0.11328,-1.78125 z m 0,0"
       id="path47"
       inkscape:connector-curvature="0" />
    <path
       style="fill:#fde60c;fill-opacity:1;fill-rule:nonzero;stroke:none"
       d="m 437.45703,195.30078 c -1.39844,0.37891 -1.44922,1.15625 -0.11719,1.72266 l 18.14453,7.7539 c 1.33204,0.57032 3.5625,0.71094 4.95704,0.3086 l 25.52343,-7.32422 c 1.39453,-0.40235 1.42969,-1.16797 0.082,-1.69922 l -18.39453,-7.28906 c -1.34375,-0.53125 -3.59375,-0.66016 -4.99218,-0.28125 z m 0,0"
       id="path49"
       inkscape:connector-curvature="0" />
    <path
       style="fill:#fde60c;fill-opacity:1;fill-rule:nonzero;stroke:none"
       d="m 477.125,184.74219 c -1.39844,0.375 -1.4375,1.11718 -0.0898,1.64453 l 18.08593,7.08203 c 1.34766,0.52734 3.59375,0.62891 4.98438,0.22266 l 25.91406,-7.55469 c 1.38672,-0.40625 1.41016,-1.14844 0.0508,-1.64844 l -17.76562,-6.54687 c -1.35938,-0.50391 -3.61719,-0.60547 -5.01953,-0.23047 z m 0,0"
       id="path51"
       inkscape:connector-curvature="0" />
    <path
       style="fill:#fde60c;fill-opacity:1;fill-rule:nonzero;stroke:none"
       d="m 445.4375,172.28906 c -1.41016,0.34766 -1.45703,1.06641 -0.10547,1.60156 l 17.86719,7.06641 c 1.34765,0.53516 3.59765,0.66016 4.99219,0.28516 l 25.80078,-6.95703 c 1.39843,-0.375 1.43359,-1.09766 0.0703,-1.59766 l -17.61328,-6.48828 c -1.35938,-0.5 -3.62891,-0.62891 -5.03125,-0.28516 z m 0,0"
       id="path53"
       inkscape:connector-curvature="0" />
    <path
       style="fill:#ffffff;fill-opacity:1;fill-rule:nonzero;stroke:none"
       d="m 435.73047,176.41406 c -1.34766,-0.53125 -3.59766,-0.67578 -5.00781,-0.32422 l -24.21094,6.01953 c -1.40625,0.34766 -1.46485,1.10157 -0.13672,1.67579 l 17.48828,7.51953 c 1.32813,0.57422 3.56641,0.73437 4.96484,0.35937 l 24.75,-6.60156 c 1.40235,-0.37109 1.44141,-1.10938 0.0937,-1.63672 z m 0,0"
       id="path55"
       inkscape:connector-curvature="0" />
    <path
       style="fill:#fde60c;fill-opacity:1;fill-rule:nonzero;stroke:none"
       d="m 414.86328,193.75 c 1.32813,0.57812 1.27344,1.35937 -0.12891,1.73437 l -24.60546,6.59766 c -1.39844,0.375 -3.61719,0.17578 -4.92579,-0.44531 l -17.35546,-8.21485 c -1.3125,-0.62109 -1.23047,-1.41796 0.17187,-1.77734 l 23.93359,-6.08984 c 1.40235,-0.35938 3.64063,-0.17578 4.96875,0.39843 z m 0,0"
       id="path57"
       inkscape:connector-curvature="0" />
  </g>
</svg>
